<?xml version="1.0" encoding="utf-8"?>
<!-- Generator: Adobe Illustrator 16.0.0, SVG Export Plug-In . SVG Version: 6.00 Build 0)  -->
<!DOCTYPE svg PUBLIC "-//W3C//DTD SVG 1.1//EN" "http://www.w3.org/Graphics/SVG/1.1/DTD/svg11.dtd">
<svg version="1.1" id="Layer_1" xmlns="http://www.w3.org/2000/svg" xmlns:xlink="http://www.w3.org/1999/xlink" x="0px" y="0px"
	 width="40px" height="40px" viewBox="876 876 40 40" enable-background="new 876 876 40 40" xml:space="preserve">
<path fill="#5C4B92" d="M895.999,877.806c3.301,0,6.345,0.812,9.133,2.44c2.788,1.626,4.996,3.833,6.622,6.621
	s2.44,5.832,2.44,9.132c0,3.301-0.814,6.345-2.44,9.133s-3.834,4.996-6.622,6.622s-5.832,2.44-9.133,2.44
	c-3.3,0-6.344-0.814-9.132-2.44s-4.995-3.834-6.621-6.622c-1.628-2.788-2.44-5.832-2.44-9.133c0-3.3,0.812-6.344,2.44-9.132
	c1.626-2.788,3.833-4.995,6.621-6.621C889.655,878.618,892.699,877.806,895.999,877.806z M902.49,890.148
	c-0.031,0.016-0.106,0.09-0.226,0.225c-0.116,0.135-0.225,0.21-0.317,0.225c0.03,0,0.065-0.039,0.105-0.117
	c0.039-0.08,0.079-0.167,0.119-0.261c0.038-0.096,0.065-0.15,0.082-0.166c0.096-0.11,0.27-0.229,0.521-0.355
	c0.222-0.096,0.631-0.189,1.231-0.284c0.538-0.127,0.94-0.04,1.209,0.26c-0.033-0.03,0.042-0.134,0.225-0.308
	c0.182-0.174,0.297-0.269,0.343-0.284c0.047-0.031,0.166-0.067,0.356-0.106c0.188-0.039,0.308-0.099,0.354-0.178l0.048-0.521
	c-0.19,0.016-0.327-0.039-0.415-0.165c-0.086-0.126-0.138-0.293-0.153-0.498c0,0.031-0.048,0.095-0.144,0.189
	c0-0.11-0.034-0.174-0.105-0.189c-0.071-0.017-0.161-0.008-0.272,0.024c-0.11,0.03-0.182,0.039-0.213,0.023
	c-0.159-0.048-0.277-0.107-0.356-0.179c-0.078-0.07-0.141-0.201-0.188-0.391s-0.078-0.308-0.095-0.355
	c-0.031-0.079-0.106-0.162-0.226-0.249c-0.118-0.087-0.193-0.169-0.225-0.248c-0.017-0.031-0.037-0.074-0.059-0.131
	c-0.023-0.055-0.048-0.105-0.071-0.153s-0.057-0.092-0.096-0.131c-0.04-0.039-0.082-0.059-0.129-0.059
	c-0.048,0-0.103,0.04-0.167,0.118c-0.064,0.079-0.122,0.158-0.178,0.237c-0.055,0.078-0.091,0.118-0.105,0.118
	c-0.048-0.031-0.096-0.044-0.143-0.035c-0.048,0.007-0.083,0.016-0.106,0.023s-0.061,0.031-0.108,0.07
	c-0.047,0.04-0.086,0.068-0.116,0.084c-0.048,0.03-0.115,0.055-0.203,0.071c-0.086,0.016-0.154,0.03-0.201,0.046
	c0.237-0.078,0.23-0.165-0.024-0.26c-0.157-0.063-0.283-0.087-0.379-0.071c0.144-0.062,0.201-0.158,0.178-0.284
	s-0.09-0.237-0.201-0.332h0.119c-0.017-0.063-0.083-0.13-0.201-0.201c-0.119-0.07-0.257-0.138-0.415-0.201s-0.26-0.11-0.308-0.142
	c-0.126-0.08-0.396-0.155-0.805-0.226c-0.412-0.071-0.672-0.074-0.783-0.012c-0.079,0.095-0.113,0.178-0.106,0.249
	c0.008,0.07,0.04,0.181,0.096,0.331c0.055,0.15,0.082,0.249,0.082,0.296c0.017,0.096-0.027,0.198-0.13,0.309
	s-0.153,0.205-0.153,0.284c0,0.11,0.109,0.232,0.331,0.367c0.221,0.135,0.3,0.304,0.237,0.51c-0.048,0.126-0.174,0.252-0.381,0.378
	c-0.204,0.127-0.331,0.222-0.378,0.285c-0.079,0.126-0.09,0.272-0.035,0.438c0.055,0.167,0.138,0.297,0.249,0.392
	c0.031,0.031,0.042,0.063,0.034,0.095c-0.007,0.032-0.034,0.067-0.082,0.106c-0.048,0.04-0.091,0.07-0.13,0.095
	c-0.04,0.023-0.092,0.051-0.155,0.083l-0.069,0.048c-0.174,0.078-0.337,0.031-0.487-0.143c-0.149-0.174-0.256-0.379-0.319-0.616
	c-0.11-0.395-0.236-0.632-0.379-0.71c-0.362-0.127-0.593-0.119-0.686,0.023c-0.081-0.206-0.404-0.411-0.973-0.616
	c-0.395-0.143-0.853-0.174-1.374-0.095c0.095-0.016,0.095-0.135,0-0.355c-0.111-0.237-0.261-0.331-0.45-0.284
	c0.048-0.095,0.079-0.232,0.095-0.415c0.016-0.181,0.024-0.288,0.024-0.319c0.047-0.205,0.142-0.387,0.284-0.545
	c0.016-0.016,0.07-0.083,0.165-0.201c0.095-0.119,0.17-0.225,0.226-0.32c0.055-0.094,0.06-0.142,0.012-0.142
	c0.553,0.063,0.947-0.023,1.185-0.261c0.079-0.079,0.17-0.213,0.272-0.403c0.103-0.189,0.187-0.324,0.248-0.402
	c0.144-0.095,0.253-0.139,0.331-0.13c0.081,0.007,0.194,0.051,0.345,0.13c0.149,0.078,0.265,0.119,0.344,0.119
	c0.221,0.016,0.344-0.071,0.367-0.261s-0.036-0.348-0.178-0.474c0.188,0.015,0.213-0.119,0.07-0.404
	c-0.079-0.109-0.142-0.181-0.188-0.213c-0.19-0.062-0.402-0.023-0.641,0.119c-0.126,0.063-0.109,0.126,0.048,0.189
	c-0.017-0.016-0.092,0.066-0.225,0.249c-0.134,0.182-0.266,0.319-0.392,0.414c-0.127,0.095-0.253,0.056-0.379-0.118
	c-0.016-0.017-0.06-0.122-0.131-0.32c-0.07-0.197-0.146-0.304-0.225-0.32c-0.126,0-0.253,0.119-0.379,0.356
	c0.048-0.126-0.039-0.245-0.261-0.356c-0.221-0.109-0.41-0.173-0.568-0.188c0.3-0.189,0.236-0.403-0.189-0.64
	c-0.111-0.063-0.272-0.103-0.486-0.119c-0.213-0.016-0.366,0.017-0.462,0.096c-0.078,0.11-0.122,0.201-0.13,0.272
	s0.031,0.134,0.118,0.189s0.171,0.099,0.249,0.13c0.08,0.031,0.17,0.063,0.272,0.095c0.103,0.032,0.17,0.056,0.201,0.071
	c0.222,0.158,0.285,0.268,0.189,0.331c-0.031,0.017-0.099,0.044-0.201,0.083c-0.103,0.04-0.193,0.075-0.272,0.107
	c-0.079,0.031-0.126,0.063-0.142,0.094c-0.048,0.063-0.048,0.174,0,0.332c0.047,0.158,0.032,0.269-0.048,0.331
	c-0.078-0.078-0.15-0.217-0.213-0.414c-0.063-0.197-0.118-0.327-0.166-0.391c0.111,0.142-0.087,0.189-0.593,0.142l-0.236-0.023
	c-0.063,0-0.189,0.017-0.379,0.048c-0.189,0.032-0.352,0.039-0.485,0.023c-0.135-0.016-0.241-0.078-0.32-0.189
	c-0.063-0.126-0.063-0.284,0-0.474c0.016-0.063,0.048-0.079,0.095-0.048c-0.062-0.047-0.149-0.122-0.261-0.225
	c-0.11-0.103-0.189-0.17-0.236-0.201c-0.727,0.236-1.47,0.561-2.228,0.972c0.095,0.015,0.19,0.007,0.284-0.024
	c0.079-0.032,0.183-0.083,0.309-0.154c0.126-0.07,0.205-0.114,0.237-0.13c0.536-0.222,0.867-0.276,0.995-0.166l0.117-0.118
	c0.222,0.253,0.379,0.449,0.475,0.593c-0.111-0.063-0.348-0.072-0.711-0.024c-0.315,0.095-0.489,0.189-0.521,0.284
	c0.11,0.189,0.15,0.332,0.119,0.427c-0.063-0.048-0.155-0.126-0.272-0.237c-0.119-0.11-0.233-0.197-0.345-0.261
	c-0.11-0.062-0.229-0.102-0.354-0.118c-0.252,0-0.426,0.008-0.521,0.023c-2.306,1.264-4.162,3.017-5.567,5.26
	c0.11,0.11,0.206,0.174,0.284,0.189c0.063,0.016,0.104,0.087,0.119,0.214c0.016,0.126,0.035,0.213,0.06,0.26
	c0.022,0.047,0.114,0.023,0.271-0.07c0.143,0.126,0.166,0.275,0.071,0.449c0.016-0.016,0.363,0.198,1.043,0.64
	c0.3,0.269,0.466,0.435,0.497,0.498c0.047,0.174-0.031,0.315-0.236,0.426c-0.017-0.031-0.087-0.103-0.214-0.213
	s-0.197-0.142-0.214-0.095c-0.046,0.079-0.043,0.226,0.012,0.438c0.057,0.213,0.139,0.312,0.249,0.297
	c-0.11,0-0.186,0.126-0.225,0.378c-0.039,0.253-0.059,0.533-0.059,0.841c0,0.309-0.009,0.494-0.023,0.557l0.046,0.024
	c-0.046,0.189-0.003,0.462,0.131,0.817c0.135,0.355,0.304,0.509,0.51,0.462c-0.206,0.047-0.048,0.387,0.474,1.019
	c0.095,0.126,0.157,0.197,0.189,0.213c0.048,0.031,0.142,0.091,0.284,0.178c0.142,0.087,0.261,0.166,0.355,0.237
	c0.095,0.07,0.174,0.153,0.236,0.249c0.063,0.078,0.143,0.256,0.237,0.531c0.095,0.278,0.206,0.463,0.332,0.559
	c-0.032,0.095,0.043,0.252,0.225,0.474c0.182,0.221,0.265,0.402,0.249,0.545c-0.016,0-0.035,0.008-0.06,0.023
	c-0.023,0.015-0.043,0.024-0.06,0.024c0.048,0.109,0.171,0.22,0.368,0.331c0.197,0.109,0.319,0.212,0.366,0.308
	c0.017,0.047,0.032,0.126,0.048,0.237c0.016,0.109,0.039,0.197,0.071,0.26c0.031,0.064,0.095,0.079,0.189,0.048
	c0.031-0.316-0.158-0.805-0.569-1.469c-0.236-0.396-0.37-0.624-0.402-0.687c-0.047-0.08-0.09-0.203-0.13-0.367
	c-0.04-0.167-0.074-0.28-0.106-0.344c0.032,0,0.078,0.012,0.142,0.034c0.064,0.023,0.131,0.053,0.202,0.084
	c0.07,0.031,0.13,0.062,0.178,0.096c0.047,0.03,0.062,0.055,0.047,0.069c-0.047,0.111-0.031,0.248,0.047,0.415
	c0.08,0.166,0.174,0.312,0.284,0.439c0.111,0.126,0.245,0.275,0.403,0.449s0.253,0.276,0.284,0.308
	c0.095,0.095,0.206,0.249,0.332,0.463c0.126,0.212,0.126,0.318,0,0.318c0.142,0,0.3,0.08,0.474,0.237
	c0.174,0.158,0.309,0.317,0.402,0.475c0.08,0.126,0.143,0.331,0.189,0.616c0.048,0.283,0.088,0.474,0.119,0.567
	c0.031,0.111,0.099,0.218,0.201,0.319c0.103,0.103,0.201,0.178,0.296,0.226l0.379,0.19l0.309,0.166
	c0.078,0.031,0.225,0.113,0.438,0.249c0.214,0.134,0.384,0.225,0.51,0.271c0.158,0.064,0.284,0.096,0.379,0.096
	s0.209-0.021,0.344-0.059c0.135-0.041,0.24-0.068,0.32-0.083c0.236-0.032,0.466,0.086,0.687,0.355
	c0.222,0.269,0.387,0.434,0.498,0.497c0.567,0.3,1.002,0.387,1.303,0.26c-0.031,0.017-0.027,0.075,0.011,0.178
	c0.04,0.103,0.103,0.225,0.19,0.367c0.086,0.144,0.157,0.257,0.212,0.345c0.057,0.086,0.1,0.153,0.132,0.201
	c0.079,0.095,0.222,0.212,0.427,0.354s0.347,0.262,0.426,0.355c0.095-0.062,0.15-0.134,0.166-0.213
	c-0.047,0.127,0.008,0.284,0.165,0.474c0.159,0.188,0.3,0.27,0.426,0.236c0.222-0.048,0.333-0.3,0.333-0.757
	c-0.49,0.235-0.878,0.095-1.161-0.427c0-0.017-0.021-0.061-0.059-0.13c-0.04-0.071-0.071-0.139-0.095-0.201
	c-0.024-0.064-0.044-0.132-0.059-0.203c-0.017-0.069-0.017-0.13,0-0.178c0.015-0.047,0.055-0.069,0.116-0.069
	c0.144,0,0.222-0.029,0.238-0.084c0.015-0.055,0-0.153-0.048-0.296c-0.047-0.142-0.078-0.245-0.095-0.308
	c-0.017-0.126-0.103-0.284-0.26-0.474c-0.159-0.19-0.254-0.308-0.285-0.355c-0.079,0.142-0.205,0.205-0.379,0.188
	c-0.174-0.015-0.3-0.086-0.379-0.212c0,0.015-0.013,0.059-0.036,0.13s-0.035,0.122-0.035,0.153c-0.205,0-0.324-0.007-0.355-0.023
	c0.016-0.048,0.036-0.185,0.06-0.413c0.024-0.23,0.052-0.408,0.083-0.534c0.016-0.062,0.059-0.158,0.131-0.284
	c0.069-0.126,0.13-0.241,0.178-0.344c0.047-0.103,0.078-0.201,0.095-0.296c0.015-0.096-0.02-0.171-0.107-0.226
	c-0.086-0.055-0.225-0.075-0.414-0.059c-0.3,0.015-0.506,0.174-0.617,0.474c-0.015,0.048-0.039,0.13-0.07,0.249
	c-0.031,0.117-0.071,0.209-0.118,0.272c-0.048,0.062-0.118,0.117-0.214,0.165c-0.11,0.048-0.3,0.063-0.568,0.048
	c-0.269-0.015-0.458-0.056-0.568-0.119c-0.206-0.126-0.383-0.355-0.533-0.687s-0.225-0.623-0.225-0.876
	c0-0.159,0.02-0.367,0.06-0.627c0.039-0.262,0.062-0.46,0.07-0.593c0.008-0.136-0.035-0.328-0.13-0.58
	c0.047-0.033,0.118-0.108,0.213-0.228c0.095-0.116,0.174-0.201,0.236-0.246c0.032-0.017,0.068-0.029,0.107-0.037
	c0.039-0.007,0.075-0.007,0.106,0c0.031,0.008,0.062-0.004,0.095-0.034c0.031-0.033,0.055-0.079,0.071-0.144
	c-0.017-0.016-0.048-0.04-0.095-0.071c-0.048-0.047-0.079-0.071-0.096-0.071c0.111,0.048,0.336,0.037,0.677-0.034
	c0.339-0.071,0.556-0.061,0.65,0.034c0.237,0.174,0.411,0.159,0.521-0.047c0-0.015-0.02-0.09-0.06-0.226
	c-0.039-0.134-0.044-0.239-0.012-0.318c0.079,0.427,0.309,0.496,0.688,0.213c0.047,0.047,0.169,0.087,0.367,0.118
	c0.197,0.031,0.335,0.071,0.415,0.119c0.048,0.031,0.103,0.075,0.165,0.13c0.063,0.055,0.107,0.09,0.13,0.106
	c0.023,0.017,0.063,0.013,0.118-0.012c0.055-0.023,0.123-0.074,0.201-0.155c0.159,0.222,0.253,0.412,0.285,0.569
	c0.174,0.633,0.324,0.979,0.45,1.043c0.11,0.047,0.197,0.063,0.26,0.047c0.064-0.017,0.099-0.091,0.108-0.225
	c0.007-0.134,0.007-0.245,0-0.331c-0.01-0.088-0.021-0.187-0.037-0.297l-0.023-0.189v-0.427l-0.023-0.19
	c-0.236-0.046-0.383-0.141-0.438-0.283c-0.057-0.143-0.044-0.289,0.034-0.439c0.079-0.149,0.198-0.295,0.355-0.438
	c0.017-0.016,0.078-0.043,0.19-0.082c0.109-0.04,0.232-0.092,0.367-0.154c0.134-0.063,0.232-0.127,0.295-0.189
	c0.333-0.301,0.451-0.576,0.356-0.83c0.109,0,0.197-0.07,0.26-0.213c-0.015,0-0.055-0.023-0.119-0.07
	c-0.062-0.048-0.12-0.087-0.177-0.119c-0.056-0.031-0.09-0.047-0.106-0.047c0.143-0.079,0.157-0.205,0.048-0.379
	c0.078-0.048,0.137-0.135,0.177-0.261c0.041-0.126,0.099-0.205,0.178-0.237c0.143,0.189,0.31,0.206,0.498,0.048
	c0.111-0.126,0.118-0.253,0.023-0.38c0.078-0.109,0.241-0.192,0.486-0.249c0.243-0.055,0.39-0.13,0.438-0.225
	c0.111,0.032,0.174,0.017,0.19-0.047c0.015-0.062,0.023-0.158,0.023-0.284s0.023-0.222,0.071-0.284
	c0.062-0.079,0.182-0.15,0.355-0.214c0.174-0.062,0.275-0.102,0.307-0.118l0.402-0.26c0.048-0.064,0.048-0.096,0-0.096
	c0.286,0.031,0.531-0.055,0.735-0.261c0.158-0.174,0.11-0.332-0.143-0.474c0.048-0.095,0.024-0.17-0.071-0.225
	c-0.095-0.055-0.212-0.099-0.354-0.131c0.048-0.016,0.139-0.02,0.272-0.011c0.134,0.007,0.218-0.005,0.249-0.036
	c0.235-0.158,0.181-0.284-0.167-0.38C903.24,889.785,902.901,889.88,902.49,890.148z M898.628,910.925
	c3.255-0.568,6.026-2.062,8.316-4.478c-0.047-0.048-0.146-0.083-0.296-0.106c-0.15-0.023-0.249-0.051-0.297-0.084
	c-0.283-0.109-0.474-0.174-0.568-0.188c0.017-0.111-0.004-0.214-0.059-0.31c-0.055-0.093-0.119-0.164-0.19-0.212
	c-0.069-0.048-0.168-0.111-0.295-0.19c-0.126-0.078-0.214-0.133-0.261-0.164c-0.031-0.033-0.087-0.079-0.167-0.143
	c-0.079-0.064-0.134-0.106-0.165-0.13c-0.03-0.024-0.091-0.061-0.177-0.108c-0.088-0.046-0.154-0.062-0.201-0.046
	c-0.048,0.015-0.127,0.024-0.238,0.024l-0.071,0.021c-0.048,0.017-0.09,0.037-0.13,0.061s-0.082,0.048-0.13,0.071
	s-0.078,0.048-0.095,0.071s-0.017,0.042,0,0.059c-0.331-0.269-0.617-0.442-0.853-0.521c-0.079-0.017-0.167-0.059-0.262-0.13
	c-0.094-0.071-0.178-0.126-0.249-0.166c-0.069-0.039-0.149-0.052-0.236-0.035c-0.087,0.015-0.177,0.071-0.272,0.165
	c-0.078,0.08-0.126,0.197-0.143,0.356c-0.015,0.157-0.031,0.26-0.047,0.308c-0.11-0.079-0.11-0.218,0-0.416
	c0.111-0.197,0.126-0.342,0.047-0.437c-0.047-0.096-0.13-0.13-0.249-0.108c-0.116,0.023-0.212,0.061-0.283,0.108
	c-0.071,0.047-0.163,0.113-0.272,0.201c-0.109,0.086-0.181,0.137-0.214,0.153c-0.031,0.017-0.099,0.059-0.201,0.13
	s-0.169,0.13-0.201,0.178c-0.048,0.063-0.096,0.159-0.142,0.285c-0.047,0.126-0.087,0.212-0.118,0.26
	c-0.031-0.062-0.123-0.113-0.272-0.153c-0.15-0.041-0.226-0.083-0.226-0.13c0.031,0.157,0.062,0.434,0.096,0.828
	c0.03,0.396,0.069,0.695,0.116,0.9c0.112,0.49,0.017,0.869-0.283,1.138c-0.426,0.396-0.655,0.71-0.688,0.947
	c-0.062,0.348,0.032,0.553,0.285,0.617c0,0.109-0.064,0.271-0.19,0.484s-0.181,0.383-0.164,0.509
	C898.583,910.64,898.598,910.767,898.628,910.925z"/>
</svg>
